<?xml version="1.0" encoding="UTF-8"?>
<!DOCTYPE svg PUBLIC "-//W3C//DTD SVG 1.1//EN" "http://www.w3.org/Graphics/SVG/1.1/DTD/svg11.dtd">
<svg version="1.2" width="250.5mm" height="110.5mm" viewBox="0 0 25050 11050" preserveAspectRatio="xMidYMid" fill-rule="evenodd" stroke-width="28.222" stroke-linejoin="round" xmlns="http://www.w3.org/2000/svg" xmlns:ooo="http://xml.openoffice.org/svg/export" xmlns:xlink="http://www.w3.org/1999/xlink" xmlns:presentation="http://sun.com/xmlns/staroffice/presentation" xmlns:smil="http://www.w3.org/2001/SMIL20/" xmlns:anim="urn:oasis:names:tc:opendocument:xmlns:animation:1.0" xml:space="preserve">
 <defs class="ClipPathGroup">
  <clipPath id="presentation_clip_path" clipPathUnits="userSpaceOnUse">
   <rect x="0" y="0" width="25050" height="11050"/>
  </clipPath>
  <clipPath id="presentation_clip_path_shrink" clipPathUnits="userSpaceOnUse">
   <rect x="25" y="11" width="25000" height="11028"/>
  </clipPath>
 </defs>
 <defs class="TextShapeIndex">
  <g ooo:slide="id1" ooo:id-list="id3"/>
 </defs>
 <defs class="EmbeddedBulletChars">
  <g id="bullet-char-template-57356" transform="scale(0.00048828125,-0.00048828125)">
   <path d="M 580,1141 L 1163,571 580,0 -4,571 580,1141 Z"/>
  </g>
  <g id="bullet-char-template-57354" transform="scale(0.00048828125,-0.00048828125)">
   <path d="M 8,1128 L 1137,1128 1137,0 8,0 8,1128 Z"/>
  </g>
  <g id="bullet-char-template-10146" transform="scale(0.00048828125,-0.00048828125)">
   <path d="M 174,0 L 602,739 174,1481 1456,739 174,0 Z M 1358,739 L 309,1346 659,739 1358,739 Z"/>
  </g>
  <g id="bullet-char-template-10132" transform="scale(0.00048828125,-0.00048828125)">
   <path d="M 2015,739 L 1276,0 717,0 1260,543 174,543 174,936 1260,936 717,1481 1274,1481 2015,739 Z"/>
  </g>
  <g id="bullet-char-template-10007" transform="scale(0.00048828125,-0.00048828125)">
   <path d="M 0,-2 C -7,14 -16,27 -25,37 L 356,567 C 262,823 215,952 215,954 215,979 228,992 255,992 264,992 276,990 289,987 310,991 331,999 354,1012 L 381,999 492,748 772,1049 836,1024 860,1049 C 881,1039 901,1025 922,1006 886,937 835,863 770,784 769,783 710,716 594,584 L 774,223 C 774,196 753,168 711,139 L 727,119 C 717,90 699,76 672,76 641,76 570,178 457,381 L 164,-76 C 142,-110 111,-127 72,-127 30,-127 9,-110 8,-76 1,-67 -2,-52 -2,-32 -2,-23 -1,-13 0,-2 Z"/>
  </g>
  <g id="bullet-char-template-10004" transform="scale(0.00048828125,-0.00048828125)">
   <path d="M 285,-33 C 182,-33 111,30 74,156 52,228 41,333 41,471 41,549 55,616 82,672 116,743 169,778 240,778 293,778 328,747 346,684 L 369,508 C 377,444 397,411 428,410 L 1163,1116 C 1174,1127 1196,1133 1229,1133 1271,1133 1292,1118 1292,1087 L 1292,965 C 1292,929 1282,901 1262,881 L 442,47 C 390,-6 338,-33 285,-33 Z"/>
  </g>
  <g id="bullet-char-template-9679" transform="scale(0.00048828125,-0.00048828125)">
   <path d="M 813,0 C 632,0 489,54 383,161 276,268 223,411 223,592 223,773 276,916 383,1023 489,1130 632,1184 813,1184 992,1184 1136,1130 1245,1023 1353,916 1407,772 1407,592 1407,412 1353,268 1245,161 1136,54 992,0 813,0 Z"/>
  </g>
  <g id="bullet-char-template-8226" transform="scale(0.00048828125,-0.00048828125)">
   <path d="M 346,457 C 273,457 209,483 155,535 101,586 74,649 74,723 74,796 101,859 155,911 209,963 273,989 346,989 419,989 480,963 531,910 582,859 608,796 608,723 608,648 583,586 532,535 482,483 420,457 346,457 Z"/>
  </g>
  <g id="bullet-char-template-8211" transform="scale(0.00048828125,-0.00048828125)">
   <path d="M -4,459 L 1135,459 1135,606 -4,606 -4,459 Z"/>
  </g>
  <g id="bullet-char-template-61548" transform="scale(0.00048828125,-0.00048828125)">
   <path d="M 173,740 C 173,903 231,1043 346,1159 462,1274 601,1332 765,1332 928,1332 1067,1274 1183,1159 1299,1043 1357,903 1357,740 1357,577 1299,437 1183,322 1067,206 928,148 765,148 601,148 462,206 346,322 231,437 173,577 173,740 Z"/>
  </g>
 </defs>
 <g>
  <g id="id2" class="Master_Slide">
   <g id="bg-id2" class="Background"/>
   <g id="bo-id2" class="BackgroundObjects"/>
  </g>
 </g>
 <g class="SlideGroup">
  <g>
   <g id="container-id1">
    <g id="id1" class="Slide" clip-path="url(#presentation_clip_path)">
     <g class="Page">
      <g class="Graphic">
       <g id="id3">
        <rect class="BoundingBox" stroke="none" fill="none" x="-1" y="51" width="25052" height="11000"/>
        <defs>
         <clipPath id="clip_path_1" clipPathUnits="userSpaceOnUse">
          <path d="M -1,51 L 25050,51 25050,11050 -1,11050 -1,51 Z"/>
         </clipPath>
        </defs>
        <g clip-path="url(#clip_path_1)"/>
        <defs>
         <clipPath id="clip_path_2" clipPathUnits="userSpaceOnUse">
          <path d="M 2091,901 L 23074,901 23074,10098 2091,10098 2091,901 Z"/>
         </clipPath>
        </defs>
        <g clip-path="url(#clip_path_2)">
         <path fill="rgb(255,255,255)" stroke="none" d="M 2091,114 L 27485,114 27485,14396 2091,14396 2091,114 2091,114 2091,114 2091,114 Z"/>
         <path fill="rgb(217,234,211)" stroke="none" d="M 6166,1986 L 8880,1986 8880,7828 6166,7828 6166,1986 6166,1986 6166,1986 6166,1986 Z"/>
         <path fill="none" stroke="rgb(89,89,89)" stroke-width="26" stroke-linejoin="round" d="M 6166,1986 L 8880,1986 8880,7828 6166,7828 6166,1986 6166,1986 6166,1986 6166,1986 Z"/>
         <path fill="rgb(89,89,89)" stroke="none" d="M 6594,7666 L 6632,7483 6660,7483 6652,7520 C 6662,7506 6671,7496 6680,7489 6689,7482 6698,7479 6707,7479 6714,7479 6721,7481 6730,7486 L 6718,7515 C 6712,7511 6706,7509 6700,7509 6689,7509 6678,7515 6666,7527 6655,7539 6646,7561 6639,7593 L 6624,7666 6594,7666 6594,7666 6594,7666 6594,7666 6594,7666 Z M 6717,7596 C 6717,7561 6728,7531 6749,7508 6766,7489 6789,7479 6817,7479 6839,7479 6857,7486 6870,7500 6884,7513 6890,7532 6890,7556 6890,7576 6886,7596 6878,7614 6869,7632 6857,7646 6841,7656 6826,7665 6809,7670 6792,7670 6778,7670 6765,7667 6753,7661 6741,7655 6732,7646 6726,7635 6720,7624 6717,7611 6717,7596 L 6717,7596 6717,7596 6717,7596 6717,7596 Z M 6748,7594 C 6748,7611 6752,7624 6761,7633 6769,7642 6779,7646 6792,7646 6799,7646 6805,7645 6812,7642 6819,7639 6825,7635 6830,7629 6836,7624 6841,7618 6845,7611 6848,7604 6852,7596 6854,7588 6858,7576 6859,7566 6859,7555 6859,7539 6855,7526 6847,7517 6839,7508 6828,7503 6816,7503 6806,7503 6797,7505 6789,7510 6781,7515 6773,7522 6767,7531 6761,7540 6756,7550 6753,7562 6750,7574 6748,7584 6748,7594 L 6748,7594 6748,7594 6748,7594 6748,7594 Z M 6913,7596 C 6913,7561 6924,7531 6945,7508 6962,7489 6985,7479 7013,7479 7035,7479 7053,7486 7066,7500 7080,7513 7087,7532 7087,7556 7087,7576 7082,7596 7074,7614 7065,7632 7053,7646 7037,7656 7022,7665 7005,7670 6988,7670 6974,7670 6961,7667 6949,7661 6937,7655 6929,7646 6922,7635 6916,7624 6913,7611 6913,7596 L 6913,7596 6913,7596 6913,7596 6913,7596 Z M 6944,7594 C 6944,7611 6948,7624 6957,7633 6965,7642 6975,7646 6988,7646 6995,7646 7001,7645 7008,7642 7015,7639 7021,7635 7026,7629 7032,7624 7037,7618 7041,7611 7045,7604 7048,7596 7050,7588 7054,7576 7056,7566 7056,7555 7056,7539 7051,7526 7043,7517 7035,7508 7024,7503 7012,7503 7002,7503 6993,7505 6985,7510 6977,7515 6970,7522 6963,7531 6957,7540 6952,7550 6949,7562 6946,7574 6944,7584 6944,7594 L 6944,7594 6944,7594 6944,7594 6944,7594 Z M 7177,7641 L 7171,7666 C 7164,7668 7157,7669 7150,7669 7138,7669 7128,7666 7120,7660 7115,7655 7112,7649 7112,7641 7112,7637 7113,7628 7116,7613 L 7138,7507 7114,7507 7119,7483 7144,7483 7153,7438 7189,7417 7175,7483 7205,7483 7200,7507 7170,7507 7149,7608 C 7146,7621 7145,7629 7145,7631 7145,7635 7146,7638 7147,7640 7150,7642 7153,7643 7158,7643 7165,7643 7171,7642 7177,7641 L 7177,7641 7177,7641 7177,7641 7177,7641 Z M 7300,7666 L 7338,7483 7365,7483 7358,7520 C 7367,7506 7376,7496 7385,7489 7394,7482 7403,7479 7413,7479 7419,7479 7427,7481 7436,7486 L 7423,7515 C 7418,7511 7412,7509 7405,7509 7394,7509 7383,7515 7372,7527 7360,7539 7351,7561 7345,7593 L 7329,7666 7300,7666 7300,7666 7300,7666 7300,7666 7300,7666 Z M 7541,7643 C 7530,7652 7519,7659 7509,7664 7499,7668 7489,7670 7477,7670 7460,7670 7446,7665 7436,7655 7426,7645 7421,7633 7421,7617 7421,7607 7423,7598 7428,7590 7432,7582 7439,7576 7446,7571 7454,7566 7463,7563 7474,7561 7482,7560 7495,7558 7515,7558 7534,7557 7548,7555 7557,7551 7559,7543 7560,7536 7560,7530 7560,7523 7557,7517 7552,7513 7545,7507 7535,7504 7521,7504 7508,7504 7497,7507 7489,7513 7480,7519 7474,7527 7470,7538 L 7439,7535 C 7445,7517 7455,7503 7469,7494 7483,7484 7501,7479 7522,7479 7545,7479 7563,7484 7576,7495 7586,7503 7591,7514 7591,7527 7591,7536 7590,7548 7587,7560 L 7577,7606 C 7573,7620 7572,7632 7572,7641 7572,7647 7573,7655 7576,7666 L 7544,7666 C 7542,7660 7541,7652 7541,7643 L 7541,7643 7541,7643 7541,7643 7541,7643 Z M 7552,7573 C 7548,7575 7543,7576 7538,7577 7533,7578 7524,7579 7513,7580 7495,7582 7482,7584 7474,7586 7467,7589 7461,7593 7458,7598 7454,7603 7452,7609 7452,7616 7452,7625 7455,7632 7461,7638 7467,7643 7476,7646 7487,7646 7497,7646 7507,7643 7516,7638 7526,7632 7533,7625 7539,7615 7544,7605 7549,7591 7552,7573 L 7552,7573 7552,7573 7552,7573 7552,7573 Z M 7737,7639 C 7719,7660 7700,7670 7681,7670 7664,7670 7649,7664 7637,7651 7626,7638 7620,7619 7620,7595 7620,7573 7625,7552 7634,7534 7643,7516 7654,7502 7668,7493 7682,7484 7696,7479 7709,7479 7732,7479 7749,7490 7761,7512 L 7781,7413 7812,7413 7760,7666 7731,7666 7737,7639 7737,7639 7737,7639 7737,7639 7737,7639 Z M 7651,7589 C 7651,7602 7652,7612 7655,7620 7657,7627 7662,7633 7668,7638 7674,7643 7681,7645 7690,7645 7704,7645 7716,7638 7728,7623 7743,7603 7751,7579 7751,7551 7751,7536 7747,7525 7740,7517 7732,7509 7723,7505 7711,7505 7704,7505 7697,7506 7691,7510 7685,7513 7679,7519 7673,7527 7667,7535 7661,7545 7657,7557 7653,7569 7651,7580 7651,7589 L 7651,7589 7651,7589 7651,7589 7651,7589 Z M 7853,7449 L 7861,7413 7892,7413 7884,7449 7853,7449 7853,7449 7853,7449 7853,7449 7853,7449 Z M 7808,7666 L 7846,7483 7877,7483 7839,7666 7808,7666 7808,7666 7808,7666 7808,7666 7808,7666 Z M 8012,7633 C 7991,7658 7968,7670 7945,7670 7931,7670 7920,7666 7911,7658 7902,7650 7898,7640 7898,7628 7898,7621 7900,7607 7904,7589 L 7926,7483 7957,7483 7933,7600 C 7931,7610 7930,7617 7930,7622 7930,7629 7932,7635 7936,7639 7940,7642 7946,7644 7955,7644 7963,7644 7971,7642 7980,7638 7988,7634 7995,7628 8001,7621 8007,7614 8012,7605 8016,7595 8019,7589 8021,7578 8025,7562 L 8041,7483 8073,7483 8034,7666 8006,7666 8012,7633 8012,7633 8012,7633 8012,7633 8012,7633 Z M 8087,7603 L 8118,7601 C 8118,7610 8119,7618 8122,7625 8125,7631 8130,7636 8137,7640 8145,7644 8153,7646 8163,7646 8177,7646 8187,7643 8194,7638 8201,7632 8204,7626 8204,7618 8204,7613 8202,7608 8198,7603 8194,7598 8184,7592 8167,7585 8151,7578 8140,7573 8136,7570 8128,7565 8122,7560 8118,7553 8114,7547 8112,7540 8112,7532 8112,7517 8118,7505 8130,7495 8141,7484 8157,7479 8178,7479 8201,7479 8218,7484 8230,7495 8242,7506 8248,7520 8249,7537 L 8218,7539 C 8218,7528 8214,7519 8206,7513 8199,7506 8189,7503 8175,7503 8165,7503 8156,7505 8150,7510 8144,7515 8142,7521 8142,7527 8142,7532 8144,7537 8149,7541 8153,7544 8161,7549 8176,7556 8200,7566 8215,7574 8221,7580 8231,7589 8236,7601 8236,7615 8236,7624 8233,7633 8227,7641 8222,7650 8213,7657 8202,7662 8191,7667 8177,7670 8162,7670 8141,7670 8123,7665 8108,7654 8093,7644 8086,7627 8087,7603 L 8087,7603 8087,7603 8087,7603 8087,7603 Z M 8358,7666 L 8396,7483 8424,7483 8416,7520 C 8426,7506 8435,7496 8443,7489 8453,7482 8462,7479 8471,7479 8478,7479 8485,7481 8494,7486 L 8482,7515 C 8476,7511 8470,7509 8464,7509 8453,7509 8441,7515 8430,7527 8419,7539 8410,7561 8403,7593 L 8388,7666 8358,7666 8358,7666 8358,7666 8358,7666 8358,7666 Z"/>
         <path fill="rgb(255,242,204)" stroke="none" d="M 8880,1986 L 20774,1986 20774,7828 8880,7828 8880,1986 8880,1986 8880,1986 8880,1986 Z"/>
         <path fill="none" stroke="rgb(89,89,89)" stroke-width="26" stroke-linejoin="round" d="M 8880,1986 L 20774,1986 20774,7828 8880,7828 8880,1986 8880,1986 8880,1986 8880,1986 Z"/>
         <path fill="rgb(89,89,89)" stroke="none" d="M 7266,2698 L 7266,2443 7305,2443 7305,2481 C 7315,2463 7324,2451 7332,2445 7341,2440 7350,2437 7360,2437 7375,2437 7390,2441 7405,2451 L 7390,2491 C 7379,2485 7369,2481 7358,2481 7349,2481 7340,2484 7333,2490 7325,2496 7320,2504 7317,2514 7312,2529 7309,2546 7309,2565 L 7309,2698 7266,2698 7266,2698 7266,2698 7266,2698 7266,2698 Z M 7415,2570 C 7415,2523 7428,2488 7454,2465 7476,2446 7503,2437 7535,2437 7570,2437 7599,2448 7621,2472 7643,2494 7655,2526 7655,2567 7655,2600 7650,2626 7640,2645 7630,2663 7615,2678 7596,2689 7578,2699 7557,2704 7535,2704 7499,2704 7470,2693 7448,2670 7426,2647 7415,2614 7415,2570 L 7415,2570 7415,2570 7415,2570 7415,2570 Z M 7460,2570 C 7460,2603 7467,2628 7481,2644 7495,2661 7513,2669 7535,2669 7556,2669 7574,2661 7588,2644 7603,2628 7610,2603 7610,2569 7610,2537 7603,2513 7588,2497 7574,2481 7556,2473 7535,2473 7513,2473 7495,2481 7481,2497 7467,2513 7460,2538 7460,2570 L 7460,2570 7460,2570 7460,2570 7460,2570 Z M 7689,2570 C 7689,2523 7702,2488 7729,2465 7751,2446 7778,2437 7809,2437 7845,2437 7873,2448 7896,2472 7918,2494 7929,2526 7929,2567 7929,2600 7924,2626 7914,2645 7904,2663 7890,2678 7871,2689 7852,2699 7832,2704 7809,2704 7773,2704 7744,2693 7722,2670 7700,2647 7689,2614 7689,2570 L 7689,2570 7689,2570 7689,2570 7689,2570 Z M 7734,2570 C 7734,2603 7741,2628 7755,2644 7769,2661 7787,2669 7809,2669 7831,2669 7849,2661 7863,2644 7877,2628 7884,2603 7884,2569 7884,2537 7877,2513 7863,2497 7849,2481 7831,2473 7809,2473 7787,2473 7769,2481 7755,2497 7741,2513 7734,2538 7734,2570 L 7734,2570 7734,2570 7734,2570 7734,2570 Z M 8075,2660 L 8081,2698 C 8069,2700 8058,2702 8048,2702 8032,2702 8020,2699 8011,2694 8003,2689 7997,2683 7993,2675 7990,2667 7988,2650 7988,2624 L 7988,2476 7956,2476 7956,2443 7988,2443 7988,2379 8031,2353 8031,2443 8075,2443 8075,2476 8031,2476 8031,2626 C 8031,2638 8032,2646 8033,2650 8035,2653 8037,2656 8040,2658 8044,2660 8049,2661 8056,2661 8060,2661 8067,2661 8075,2660 L 8075,2660 8075,2660 8075,2660 8075,2660 Z"/>
         <path fill="rgb(89,89,89)" stroke="none" d="M 14346,2622 L 14389,2615 C 14391,2632 14398,2646 14409,2655 14420,2664 14435,2669 14455,2669 14475,2669 14490,2665 14499,2657 14509,2648 14514,2639 14514,2628 14514,2618 14509,2610 14501,2605 14495,2601 14480,2596 14457,2590 14425,2582 14402,2575 14390,2569 14378,2563 14369,2555 14362,2545 14356,2535 14353,2523 14353,2510 14353,2499 14355,2489 14361,2479 14366,2469 14373,2461 14382,2455 14389,2450 14398,2445 14409,2442 14421,2439 14434,2437 14447,2437 14467,2437 14485,2440 14500,2445 14515,2451 14526,2459 14534,2469 14541,2479 14546,2492 14549,2509 L 14506,2514 C 14504,2501 14499,2491 14489,2483 14480,2476 14467,2472 14450,2472 14430,2472 14416,2476 14407,2482 14399,2489 14395,2497 14395,2505 14395,2511 14397,2516 14400,2521 14404,2525 14409,2529 14417,2532 14421,2534 14434,2538 14455,2543 14486,2551 14507,2558 14519,2563 14532,2569 14541,2576 14548,2586 14555,2596 14558,2608 14558,2623 14558,2638 14554,2651 14545,2664 14537,2677 14525,2687 14509,2694 14493,2701 14475,2704 14455,2704 14422,2704 14397,2697 14379,2684 14362,2670 14351,2649 14346,2622 L 14346,2622 14346,2622 14346,2622 14346,2622 Z M 14594,2570 C 14594,2523 14607,2488 14633,2465 14655,2446 14682,2437 14714,2437 14749,2437 14778,2448 14800,2472 14822,2494 14834,2526 14834,2567 14834,2600 14829,2626 14819,2645 14809,2663 14794,2678 14775,2689 14757,2699 14736,2704 14714,2704 14678,2704 14649,2693 14627,2670 14605,2647 14594,2614 14594,2570 L 14594,2570 14594,2570 14594,2570 14594,2570 Z M 14638,2570 C 14638,2603 14646,2628 14660,2644 14674,2661 14692,2669 14714,2669 14735,2669 14753,2661 14767,2644 14782,2628 14789,2603 14789,2569 14789,2537 14782,2513 14767,2497 14753,2481 14735,2473 14714,2473 14692,2473 14674,2481 14660,2497 14646,2513 14638,2538 14638,2570 L 14638,2570 14638,2570 14638,2570 14638,2570 Z M 14884,2395 L 14884,2345 14928,2345 14928,2395 14884,2395 14884,2395 14884,2395 14884,2395 14884,2395 Z M 14884,2698 L 14884,2443 14928,2443 14928,2698 14884,2698 14884,2698 14884,2698 14884,2698 14884,2698 Z M 14993,2698 L 14993,2345 15036,2345 15036,2698 14993,2698 14993,2698 14993,2698 14993,2698 14993,2698 Z"/>
         <path fill="rgb(106,168,79)" stroke="none" d="M 6665,4822 L 7048,4440 7048,4631 8381,4631 8381,5014 7048,5014 7048,5205 6665,4822 6665,4822 6665,4822 6665,4822 Z"/>
         <path fill="none" stroke="rgb(89,89,89)" stroke-width="26" stroke-linejoin="round" d="M 6665,4822 L 7048,4440 7048,4631 8381,4631 8381,5014 7048,5014 7048,5205 6665,4822 6665,4822 6665,4822 6665,4822 Z"/>
         <path fill="rgb(255,153,0)" stroke="none" d="M 13967,4822 L 14350,4440 14350,4631 15683,4631 15683,5014 14350,5014 14350,5205 13967,4822 13967,4822 13967,4822 13967,4822 Z"/>
         <path fill="none" stroke="rgb(89,89,89)" stroke-width="26" stroke-linejoin="round" d="M 13967,4822 L 14350,4440 14350,4631 15683,4631 15683,5014 14350,5014 14350,5205 13967,4822 13967,4822 13967,4822 13967,4822 Z"/>
         <path fill="rgb(217,234,211)" stroke="none" d="M 3453,1986 L 6166,1986 6166,7828 3453,7828 3453,1986 3453,1986 3453,1986 3453,1986 Z"/>
         <path fill="none" stroke="rgb(89,89,89)" stroke-width="26" stroke-linejoin="round" d="M 3453,1986 L 6166,1986 6166,7828 3453,7828 3453,1986 3453,1986 3453,1986 3453,1986 Z"/>
         <path fill="none" stroke="rgb(89,89,89)" stroke-width="53" stroke-linejoin="round" d="M 6143,1093 L 6167,8549"/>
         <path fill="rgb(89,89,89)" stroke="none" d="M 4305,9477 C 4294,9486 4284,9493 4274,9497 4264,9501 4253,9504 4242,9504 4225,9504 4211,9499 4201,9489 4191,9479 4186,9466 4186,9451 4186,9440 4188,9431 4193,9424 4197,9416 4203,9409 4211,9405 4219,9400 4228,9396 4239,9394 4246,9393 4260,9392 4279,9391 4299,9390 4313,9388 4322,9385 4324,9376 4325,9369 4325,9363 4325,9356 4322,9351 4317,9346 4310,9341 4299,9338 4286,9338 4272,9338 4262,9341 4253,9346 4245,9352 4239,9361 4235,9371 L 4204,9368 C 4210,9350 4220,9337 4234,9327 4248,9317 4266,9313 4287,9313 4309,9313 4327,9318 4341,9329 4351,9337 4356,9347 4356,9360 4356,9370 4354,9381 4352,9394 L 4341,9439 C 4338,9454 4336,9466 4336,9475 4336,9480 4338,9489 4341,9499 L 4309,9499 C 4307,9493 4306,9486 4305,9477 L 4305,9477 4305,9477 4305,9477 4305,9477 Z M 4317,9407 C 4312,9408 4308,9410 4302,9411 4298,9412 4289,9413 4278,9414 4260,9415 4247,9417 4239,9420 4232,9422 4226,9426 4222,9432 4218,9437 4217,9443 4217,9449 4217,9458 4220,9466 4226,9471 4232,9477 4240,9480 4252,9480 4262,9480 4272,9477 4281,9471 4291,9466 4298,9458 4304,9449 4309,9439 4314,9425 4317,9407 L 4317,9407 4317,9407 4317,9407 4317,9407 Z M 4366,9499 L 4445,9407 4400,9317 4434,9317 4450,9349 C 4455,9361 4460,9373 4465,9384 L 4518,9317 4556,9317 4479,9409 4525,9499 4491,9499 4473,9462 C 4469,9454 4464,9444 4459,9433 L 4405,9499 4366,9499 4366,9499 4366,9499 4366,9499 4366,9499 Z M 4598,9282 L 4606,9247 4637,9247 4629,9282 4598,9282 4598,9282 4598,9282 4598,9282 4598,9282 Z M 4553,9499 L 4591,9317 4622,9317 4584,9499 4553,9499 4553,9499 4553,9499 4553,9499 4553,9499 Z M 4635,9437 L 4667,9435 C 4667,9444 4668,9452 4671,9458 4674,9464 4679,9470 4686,9474 4694,9478 4702,9480 4712,9480 4726,9480 4736,9477 4743,9471 4750,9466 4753,9459 4753,9452 4753,9446 4751,9441 4747,9437 4743,9432 4733,9426 4716,9419 4699,9412 4689,9407 4685,9404 4677,9399 4671,9393 4667,9387 4663,9381 4661,9373 4661,9365 4661,9351 4667,9338 4678,9328 4690,9318 4706,9313 4727,9313 4750,9313 4767,9318 4779,9329 4791,9339 4797,9353 4798,9370 L 4767,9373 C 4767,9361 4763,9353 4755,9346 4748,9340 4738,9337 4724,9337 4714,9337 4705,9339 4699,9344 4693,9349 4690,9354 4690,9360 4690,9366 4693,9371 4698,9375 4702,9378 4710,9383 4725,9389 4749,9399 4764,9407 4770,9413 4780,9423 4785,9434 4785,9448 4785,9457 4782,9466 4776,9475 4771,9484 4762,9490 4751,9496 4739,9501 4726,9504 4711,9504 4689,9504 4671,9498 4657,9488 4642,9477 4635,9460 4635,9437 L 4635,9437 4635,9437 4635,9437 4635,9437 Z M 4797,9570 L 4799,9541 C 4806,9543 4812,9544 4818,9544 4824,9544 4829,9542 4833,9539 4838,9535 4844,9528 4850,9518 L 4860,9500 4829,9317 4860,9317 4874,9409 C 4876,9427 4879,9446 4881,9464 L 4963,9317 4995,9317 4879,9524 C 4867,9544 4857,9557 4849,9564 4840,9570 4830,9574 4818,9574 4811,9574 4804,9573 4797,9570 L 4797,9570 4797,9570 4797,9570 4797,9570 Z M 4985,9499 L 5023,9317 5055,9317 5048,9347 C 5060,9334 5070,9325 5079,9320 5088,9315 5098,9313 5109,9313 5120,9313 5130,9316 5137,9322 5145,9327 5150,9336 5153,9347 5162,9335 5171,9327 5181,9321 5192,9315 5203,9313 5214,9313 5230,9313 5241,9316 5248,9323 5256,9330 5260,9341 5260,9354 5260,9359 5259,9369 5256,9382 L 5231,9499 5200,9499 5225,9379 C 5228,9369 5229,9362 5229,9357 5229,9351 5227,9347 5223,9344 5219,9340 5214,9338 5207,9338 5198,9338 5188,9341 5179,9347 5169,9352 5161,9360 5156,9369 5151,9378 5146,9392 5142,9411 L 5124,9499 5092,9499 5118,9376 C 5120,9368 5121,9362 5121,9358 5121,9352 5119,9347 5115,9344 5111,9340 5107,9338 5101,9338 5092,9338 5083,9341 5073,9347 5063,9352 5055,9360 5049,9370 5043,9380 5038,9394 5034,9413 L 5016,9499 4985,9499 4985,9499 4985,9499 4985,9499 4985,9499 Z M 5279,9499 L 5317,9317 5348,9317 5342,9347 C 5353,9334 5364,9325 5373,9320 5382,9315 5392,9313 5402,9313 5414,9313 5424,9316 5431,9322 5439,9327 5444,9336 5446,9347 5455,9335 5465,9327 5475,9321 5486,9315 5497,9313 5508,9313 5523,9313 5535,9316 5542,9323 5550,9330 5554,9341 5554,9354 5554,9359 5552,9369 5550,9382 L 5525,9499 5494,9499 5519,9379 C 5521,9369 5522,9362 5522,9357 5522,9351 5520,9347 5517,9344 5513,9340 5508,9338 5501,9338 5491,9338 5482,9341 5472,9347 5463,9352 5455,9360 5450,9369 5444,9378 5440,9392 5436,9411 L 5417,9499 5386,9499 5412,9376 C 5414,9368 5415,9362 5415,9358 5415,9352 5413,9347 5409,9344 5405,9340 5400,9338 5395,9338 5386,9338 5376,9341 5366,9347 5357,9352 5349,9360 5343,9370 5337,9380 5332,9394 5328,9413 L 5310,9499 5279,9499 5279,9499 5279,9499 5279,9499 5279,9499 Z M 5707,9437 L 5738,9440 C 5733,9455 5723,9470 5707,9483 5692,9497 5673,9504 5651,9504 5638,9504 5625,9501 5614,9494 5603,9488 5594,9479 5588,9467 5582,9455 5579,9441 5579,9426 5579,9406 5584,9387 5593,9368 5602,9349 5614,9335 5629,9326 5644,9317 5660,9313 5677,9313 5699,9313 5716,9319 5729,9333 5742,9346 5749,9365 5749,9388 5749,9397 5748,9406 5746,9416 L 5611,9416 C 5611,9419 5611,9422 5611,9425 5611,9442 5614,9456 5622,9465 5630,9473 5640,9478 5652,9478 5662,9478 5672,9474 5683,9468 5693,9461 5701,9451 5707,9437 L 5707,9437 5707,9437 5707,9437 5707,9437 Z M 5616,9392 L 5719,9392 C 5719,9389 5719,9386 5719,9385 5719,9369 5715,9358 5707,9349 5700,9341 5690,9337 5678,9337 5664,9337 5652,9341 5641,9351 5630,9360 5622,9373 5616,9392 L 5616,9392 5616,9392 5616,9392 5616,9392 Z M 5842,9474 L 5836,9499 C 5829,9501 5822,9502 5815,9502 5803,9502 5793,9499 5785,9493 5780,9489 5777,9483 5777,9475 5777,9470 5778,9461 5781,9447 L 5803,9341 5779,9341 5784,9317 5809,9317 5818,9272 5854,9250 5840,9317 5870,9317 5865,9341 5835,9341 5814,9442 C 5811,9454 5810,9462 5810,9465 5810,9469 5811,9471 5812,9473 5815,9475 5818,9476 5823,9476 5830,9476 5836,9476 5842,9474 L 5842,9474 5842,9474 5842,9474 5842,9474 Z M 5867,9499 L 5905,9317 5932,9317 5925,9354 C 5934,9340 5943,9330 5952,9323 5961,9316 5971,9313 5980,9313 5986,9313 5994,9315 6003,9319 L 5990,9348 C 5985,9344 5979,9342 5972,9342 5961,9342 5950,9348 5939,9361 5927,9373 5918,9395 5912,9426 L 5896,9499 5867,9499 5867,9499 5867,9499 5867,9499 5867,9499 Z M 6028,9282 L 6036,9247 6067,9247 6059,9282 6028,9282 6028,9282 6028,9282 6028,9282 6028,9282 Z M 5983,9499 L 6021,9317 6052,9317 6014,9499 5983,9499 5983,9499 5983,9499 5983,9499 5983,9499 Z M 6189,9433 L 6220,9436 C 6212,9459 6201,9476 6186,9487 6172,9498 6156,9504 6138,9504 6118,9504 6101,9497 6089,9485 6077,9472 6071,9454 6071,9430 6071,9411 6075,9391 6082,9372 6090,9352 6102,9338 6116,9328 6131,9318 6148,9313 6167,9313 6187,9313 6202,9318 6214,9329 6225,9340 6231,9355 6231,9373 L 6200,9375 C 6200,9363 6197,9354 6190,9348 6184,9342 6175,9338 6164,9338 6152,9338 6141,9342 6131,9350 6122,9358 6115,9370 6110,9386 6105,9402 6102,9418 6102,9432 6102,9448 6106,9460 6112,9468 6119,9476 6128,9480 6138,9480 6148,9480 6157,9476 6167,9468 6176,9460 6183,9449 6189,9433 L 6189,9433 6189,9433 6189,9433 6189,9433 Z M 6460,9477 C 6449,9486 6439,9493 6429,9497 6419,9501 6408,9504 6397,9504 6380,9504 6366,9499 6356,9489 6345,9479 6340,9466 6340,9451 6340,9440 6343,9431 6347,9424 6352,9416 6358,9409 6366,9405 6374,9400 6383,9396 6394,9394 6401,9393 6415,9392 6434,9391 6454,9390 6468,9388 6476,9385 6479,9376 6480,9369 6480,9363 6480,9356 6477,9351 6472,9346 6465,9341 6454,9338 6440,9338 6427,9338 6416,9341 6408,9346 6400,9352 6394,9361 6390,9371 L 6359,9368 C 6365,9350 6375,9337 6389,9327 6403,9317 6420,9313 6442,9313 6464,9313 6482,9318 6495,9329 6506,9337 6511,9347 6511,9360 6511,9370 6509,9381 6507,9394 L 6496,9439 C 6493,9454 6491,9466 6491,9475 6491,9480 6493,9489 6495,9499 L 6464,9499 C 6462,9493 6461,9486 6460,9477 L 6460,9477 6460,9477 6460,9477 6460,9477 Z M 6471,9407 C 6467,9408 6463,9410 6457,9411 6452,9412 6444,9413 6433,9414 6414,9415 6402,9417 6394,9420 6387,9422 6381,9426 6377,9432 6373,9437 6371,9443 6371,9449 6371,9458 6374,9466 6380,9471 6387,9477 6395,9480 6407,9480 6417,9480 6426,9477 6436,9471 6446,9466 6453,9458 6459,9449 6464,9439 6468,9425 6471,9407 L 6471,9407 6471,9407 6471,9407 6471,9407 Z M 6533,9499 L 6571,9317 6598,9317 6591,9354 C 6600,9340 6609,9330 6618,9323 6627,9316 6637,9313 6646,9313 6652,9313 6660,9315 6669,9319 L 6656,9348 C 6651,9344 6645,9342 6639,9342 6628,9342 6616,9348 6605,9361 6593,9373 6584,9395 6578,9426 L 6563,9499 6533,9499 6533,9499 6533,9499 6533,9499 6533,9499 Z M 6656,9430 C 6656,9394 6666,9365 6687,9342 6705,9322 6727,9313 6756,9313 6778,9313 6795,9319 6809,9333 6822,9347 6829,9366 6829,9389 6829,9410 6825,9430 6816,9448 6808,9466 6796,9479 6780,9489 6764,9499 6748,9504 6730,9504 6716,9504 6703,9501 6692,9494 6680,9488 6671,9480 6665,9469 6659,9458 6656,9445 6656,9430 L 6656,9430 6656,9430 6656,9430 6656,9430 Z M 6687,9427 C 6687,9444 6691,9457 6699,9466 6708,9475 6718,9480 6731,9480 6737,9480 6744,9478 6751,9475 6757,9473 6763,9469 6769,9463 6775,9458 6779,9451 6783,9444 6787,9437 6790,9430 6793,9421 6796,9410 6798,9399 6798,9389 6798,9372 6794,9359 6786,9350 6777,9341 6767,9337 6754,9337 6744,9337 6735,9339 6727,9344 6719,9348 6712,9355 6706,9364 6699,9373 6695,9383 6692,9395 6688,9407 6687,9418 6687,9427 L 6687,9427 6687,9427 6687,9427 6687,9427 Z M 6971,9466 C 6949,9491 6927,9504 6904,9504 6890,9504 6878,9500 6869,9492 6861,9483 6857,9473 6857,9462 6857,9454 6859,9441 6862,9422 L 6885,9317 6916,9317 6891,9433 C 6889,9443 6888,9451 6888,9456 6888,9463 6890,9468 6895,9472 6899,9476 6905,9478 6913,9478 6922,9478 6930,9476 6938,9472 6947,9468 6954,9462 6960,9455 6966,9447 6971,9439 6975,9429 6977,9422 6980,9411 6984,9396 L 7000,9317 7031,9317 6993,9499 6964,9499 6971,9466 6971,9466 6971,9466 6971,9466 6971,9466 Z M 7042,9499 L 7081,9317 7109,9317 7102,9349 C 7114,9336 7126,9327 7137,9321 7147,9315 7158,9313 7169,9313 7184,9313 7196,9317 7204,9325 7213,9333 7217,9343 7217,9357 7217,9363 7215,9374 7212,9389 L 7189,9499 7158,9499 7182,9384 C 7185,9372 7186,9364 7186,9358 7186,9352 7184,9348 7180,9344 7175,9340 7169,9338 7161,9338 7145,9338 7131,9344 7119,9356 7106,9367 7097,9386 7092,9414 L 7074,9499 7042,9499 7042,9499 7042,9499 7042,9499 7042,9499 Z M 7362,9473 C 7344,9493 7326,9504 7306,9504 7289,9504 7274,9497 7263,9485 7251,9472 7245,9453 7245,9429 7245,9406 7250,9386 7259,9368 7268,9349 7280,9335 7293,9326 7307,9317 7321,9313 7335,9313 7357,9313 7374,9323 7386,9345 L 7407,9247 7438,9247 7385,9499 7356,9499 7362,9473 7362,9473 7362,9473 7362,9473 7362,9473 Z M 7276,9423 C 7276,9436 7278,9446 7280,9453 7283,9460 7287,9466 7293,9471 7299,9476 7306,9479 7315,9479 7329,9479 7342,9471 7353,9456 7369,9437 7377,9413 7377,9384 7377,9370 7373,9359 7365,9351 7358,9342 7348,9338 7336,9338 7329,9338 7322,9340 7316,9343 7310,9346 7304,9352 7298,9360 7292,9368 7287,9378 7283,9391 7279,9403 7276,9414 7276,9423 L 7276,9423 7276,9423 7276,9423 7276,9423 Z M 7533,9499 L 7571,9317 7598,9317 7591,9354 C 7600,9340 7609,9330 7618,9323 7627,9316 7636,9313 7646,9313 7652,9313 7660,9315 7669,9319 L 7656,9348 C 7651,9344 7645,9342 7638,9342 7627,9342 7616,9348 7604,9361 7593,9373 7584,9395 7578,9426 L 7562,9499 7533,9499 7533,9499 7533,9499 7533,9499 7533,9499 Z M 7656,9430 C 7656,9394 7666,9365 7687,9342 7705,9322 7727,9313 7755,9313 7777,9313 7795,9319 7809,9333 7822,9347 7829,9366 7829,9389 7829,9410 7825,9430 7816,9448 7808,9466 7795,9479 7780,9489 7764,9499 7748,9504 7730,9504 7716,9504 7703,9501 7691,9494 7680,9488 7671,9480 7665,9469 7659,9458 7656,9445 7656,9430 L 7656,9430 7656,9430 7656,9430 7656,9430 Z M 7687,9427 C 7687,9444 7691,9457 7699,9466 7707,9475 7718,9480 7731,9480 7737,9480 7744,9478 7750,9475 7757,9473 7763,9469 7769,9463 7774,9458 7779,9451 7783,9444 7787,9437 7790,9430 7793,9421 7796,9410 7798,9399 7798,9389 7798,9372 7794,9359 7786,9350 7777,9341 7767,9337 7754,9337 7744,9337 7735,9339 7727,9344 7719,9348 7712,9355 7705,9364 7699,9373 7694,9383 7691,9395 7688,9407 7687,9418 7687,9427 L 7687,9427 7687,9427 7687,9427 7687,9427 Z M 7852,9430 C 7852,9394 7862,9365 7883,9342 7901,9322 7923,9313 7951,9313 7974,9313 7991,9319 8005,9333 8018,9347 8025,9366 8025,9389 8025,9410 8021,9430 8012,9448 8004,9466 7992,9479 7976,9489 7960,9499 7944,9504 7926,9504 7912,9504 7899,9501 7887,9494 7876,9488 7867,9480 7861,9469 7855,9458 7852,9445 7852,9430 L 7852,9430 7852,9430 7852,9430 7852,9430 Z M 7883,9427 C 7883,9444 7887,9457 7895,9466 7904,9475 7914,9480 7927,9480 7933,9480 7940,9478 7946,9475 7953,9473 7959,9469 7965,9463 7970,9458 7975,9451 7979,9444 7983,9437 7986,9430 7989,9421 7992,9410 7994,9399 7994,9389 7994,9372 7990,9359 7982,9350 7973,9341 7963,9337 7950,9337 7940,9337 7931,9339 7923,9344 7915,9348 7908,9355 7901,9364 7895,9373 7890,9383 7887,9395 7884,9407 7883,9418 7883,9427 L 7883,9427 7883,9427 7883,9427 7883,9427 Z M 8115,9474 L 8110,9499 C 8102,9501 8095,9502 8088,9502 8076,9502 8066,9499 8059,9493 8053,9489 8050,9483 8050,9475 8050,9470 8052,9461 8055,9447 L 8077,9341 8052,9341 8057,9317 8082,9317 8091,9272 8127,9250 8113,9317 8144,9317 8139,9341 8108,9341 8087,9442 C 8084,9454 8083,9462 8083,9465 8083,9469 8084,9471 8086,9473 8088,9475 8092,9476 8097,9476 8104,9476 8110,9476 8115,9474 L 8115,9474 8115,9474 8115,9474 8115,9474 Z"/>
         <path fill="rgb(89,89,89)" stroke="none" d="M 4482,9900 C 4470,9909 4460,9916 4450,9921 4440,9925 4430,9927 4418,9927 4401,9927 4387,9922 4377,9912 4367,9902 4362,9889 4362,9874 4362,9864 4364,9855 4369,9847 4373,9839 4380,9833 4387,9828 4395,9823 4404,9820 4415,9818 4423,9816 4436,9815 4455,9814 4475,9814 4489,9811 4498,9808 4500,9800 4501,9792 4501,9787 4501,9779 4498,9774 4493,9770 4486,9764 4475,9761 4462,9761 4448,9761 4438,9764 4429,9770 4421,9775 4415,9784 4411,9795 L 4380,9792 C 4386,9774 4396,9760 4410,9750 4424,9741 4442,9736 4463,9736 4486,9736 4503,9741 4517,9752 4527,9760 4532,9770 4532,9783 4532,9793 4531,9804 4528,9817 L 4517,9863 C 4514,9877 4513,9889 4513,9898 4513,9904 4514,9912 4517,9923 L 4485,9923 C 4483,9917 4482,9909 4482,9900 L 4482,9900 4482,9900 4482,9900 4482,9900 Z M 4493,9830 C 4489,9832 4484,9833 4479,9834 4474,9835 4465,9836 4454,9837 4436,9838 4423,9840 4415,9843 4408,9845 4402,9849 4398,9855 4395,9860 4393,9866 4393,9873 4393,9881 4396,9889 4402,9895 4408,9900 4416,9903 4428,9903 4438,9903 4448,9900 4457,9895 4467,9889 4474,9881 4480,9872 4485,9862 4490,9848 4493,9830 L 4493,9830 4493,9830 4493,9830 4493,9830 Z M 4542,9923 L 4621,9830 4576,9740 4610,9740 4626,9772 C 4631,9785 4637,9796 4641,9807 L 4694,9740 4732,9740 4655,9832 4701,9923 4667,9923 4649,9885 C 4645,9877 4640,9868 4635,9856 L 4581,9923 4542,9923 4542,9923 4542,9923 4542,9923 4542,9923 Z M 4775,9706 L 4782,9670 4813,9670 4806,9706 4775,9706 4775,9706 4775,9706 4775,9706 4775,9706 Z M 4729,9923 L 4768,9740 4799,9740 4760,9923 4729,9923 4729,9923 4729,9923 4729,9923 4729,9923 Z M 4812,9860 L 4843,9858 C 4843,9867 4844,9875 4847,9881 4850,9888 4855,9893 4862,9897 4870,9901 4878,9903 4888,9903 4902,9903 4912,9900 4919,9895 4926,9889 4929,9883 4929,9875 4929,9870 4927,9865 4923,9860 4919,9855 4909,9849 4892,9842 4876,9835 4865,9830 4861,9827 4853,9822 4847,9817 4843,9810 4839,9804 4837,9797 4837,9788 4837,9774 4843,9762 4855,9752 4866,9741 4882,9736 4903,9736 4926,9736 4943,9741 4955,9752 4967,9762 4973,9776 4974,9794 L 4943,9796 C 4943,9785 4939,9776 4931,9770 4924,9763 4914,9760 4900,9760 4890,9760 4881,9762 4875,9767 4869,9772 4867,9778 4867,9783 4867,9789 4869,9794 4874,9798 4878,9801 4887,9806 4901,9812 4925,9822 4940,9831 4946,9837 4956,9846 4961,9858 4961,9871 4961,9880 4958,9889 4953,9898 4947,9907 4938,9914 4927,9919 4916,9924 4902,9927 4887,9927 4866,9927 4848,9922 4833,9911 4818,9901 4811,9884 4812,9860 L 4812,9860 4812,9860 4812,9860 4812,9860 Z M 5087,9923 L 5121,9764 5093,9764 5098,9740 5125,9740 5131,9714 C 5134,9701 5136,9692 5139,9686 5142,9680 5147,9675 5154,9672 5160,9668 5169,9666 5180,9666 5188,9666 5200,9668 5215,9671 L 5209,9698 C 5199,9695 5190,9694 5183,9694 5177,9694 5172,9696 5169,9699 5166,9702 5163,9709 5161,9720 L 5157,9740 5192,9740 5187,9764 5152,9764 5118,9923 5087,9923 5087,9923 5087,9923 5087,9923 5087,9923 Z M 5187,9853 C 5187,9818 5197,9788 5218,9765 5235,9745 5258,9736 5286,9736 5308,9736 5326,9743 5340,9756 5353,9770 5360,9789 5360,9812 5360,9833 5356,9853 5347,9871 5339,9889 5326,9903 5311,9912 5295,9922 5278,9927 5261,9927 5247,9927 5234,9924 5222,9918 5211,9912 5202,9903 5196,9892 5190,9881 5187,9868 5187,9853 L 5187,9853 5187,9853 5187,9853 5187,9853 Z M 5218,9850 C 5218,9867 5222,9880 5230,9890 5238,9898 5249,9903 5261,9903 5268,9903 5275,9901 5281,9899 5288,9896 5294,9892 5300,9886 5305,9881 5310,9875 5314,9868 5318,9861 5321,9853 5323,9845 5327,9833 5329,9822 5329,9812 5329,9795 5325,9783 5316,9773 5308,9764 5298,9760 5285,9760 5275,9760 5266,9762 5258,9767 5250,9772 5243,9778 5236,9787 5230,9796 5225,9807 5222,9818 5219,9830 5218,9841 5218,9850 L 5218,9850 5218,9850 5218,9850 5218,9850 Z M 5377,9923 L 5415,9740 5443,9740 5435,9777 C 5445,9763 5454,9753 5463,9746 5472,9739 5481,9736 5490,9736 5497,9736 5504,9738 5513,9742 L 5501,9771 C 5495,9768 5489,9766 5483,9766 5472,9766 5460,9772 5449,9784 5438,9796 5429,9818 5422,9849 L 5407,9923 5377,9923 5377,9923 5377,9923 5377,9923 5377,9923 Z M 5666,9897 L 5660,9923 C 5653,9925 5646,9926 5639,9926 5626,9926 5616,9923 5609,9916 5603,9912 5601,9906 5601,9898 5601,9894 5602,9884 5605,9870 L 5627,9764 5603,9764 5608,9740 5632,9740 5642,9695 5678,9673 5663,9740 5694,9740 5689,9764 5659,9764 5637,9865 C 5635,9878 5633,9885 5633,9888 5633,9892 5634,9895 5636,9897 5638,9899 5642,9899 5647,9899 5654,9899 5660,9899 5666,9897 L 5666,9897 5666,9897 5666,9897 5666,9897 Z M 5690,9923 L 5743,9670 5774,9670 5754,9767 C 5766,9756 5776,9748 5786,9743 5796,9738 5807,9736 5817,9736 5832,9736 5844,9740 5852,9748 5861,9756 5865,9766 5865,9779 5865,9786 5863,9797 5860,9815 L 5837,9923 5806,9923 5829,9812 C 5833,9796 5834,9786 5834,9782 5834,9776 5832,9771 5828,9767 5824,9763 5818,9761 5810,9761 5799,9761 5788,9764 5778,9771 5768,9776 5760,9784 5754,9795 5748,9805 5743,9821 5738,9844 L 5722,9923 5690,9923 5690,9923 5690,9923 5690,9923 5690,9923 Z M 6021,9861 L 6051,9864 C 6047,9879 6037,9893 6021,9907 6005,9920 5987,9927 5965,9927 5951,9927 5939,9924 5928,9918 5916,9911 5908,9902 5902,9890 5896,9878 5893,9865 5893,9849 5893,9829 5898,9810 5907,9791 5916,9772 5928,9759 5943,9749 5958,9740 5974,9736 5991,9736 6012,9736 6030,9743 6043,9756 6056,9770 6063,9788 6063,9811 6063,9820 6062,9830 6060,9839 L 5925,9839 C 5925,9842 5924,9846 5924,9849 5924,9866 5928,9879 5936,9888 5944,9897 5954,9901 5965,9901 5976,9901 5986,9898 5996,9891 6007,9884 6015,9874 6021,9861 L 6021,9861 6021,9861 6021,9861 6021,9861 Z M 5930,9815 L 6033,9815 C 6033,9812 6033,9810 6033,9808 6033,9793 6029,9781 6021,9773 6013,9764 6004,9760 5991,9760 5978,9760 5966,9764 5955,9774 5944,9783 5936,9797 5930,9815 L 5930,9815 5930,9815 5930,9815 5930,9815 Z M 6183,9860 L 6215,9858 C 6215,9867 6216,9875 6219,9881 6222,9888 6227,9893 6234,9897 6242,9901 6250,9903 6260,9903 6274,9903 6284,9900 6291,9895 6298,9889 6301,9883 6301,9875 6301,9870 6299,9865 6295,9860 6291,9855 6281,9849 6264,9842 6247,9835 6237,9830 6233,9827 6225,9822 6219,9817 6215,9810 6211,9804 6209,9797 6209,9788 6209,9774 6215,9762 6226,9752 6238,9741 6254,9736 6275,9736 6298,9736 6315,9741 6327,9752 6339,9762 6345,9776 6346,9794 L 6315,9796 C 6315,9785 6311,9776 6303,9770 6296,9763 6286,9760 6272,9760 6262,9760 6253,9762 6247,9767 6241,9772 6238,9778 6238,9783 6238,9789 6241,9794 6246,9798 6250,9801 6258,9806 6273,9812 6297,9822 6312,9831 6318,9837 6328,9846 6333,9858 6333,9871 6333,9880 6330,9889 6324,9898 6319,9907 6310,9914 6299,9919 6287,9924 6274,9927 6259,9927 6237,9927 6219,9922 6204,9911 6190,9901 6183,9884 6183,9860 L 6183,9860 6183,9860 6183,9860 6183,9860 Z M 6363,9853 C 6363,9818 6373,9788 6394,9765 6411,9745 6434,9736 6462,9736 6484,9736 6502,9743 6516,9756 6529,9770 6536,9789 6536,9812 6536,9833 6532,9853 6523,9871 6514,9889 6502,9903 6487,9912 6471,9922 6454,9927 6437,9927 6423,9927 6410,9924 6398,9918 6387,9912 6378,9903 6372,9892 6366,9881 6363,9868 6363,9853 L 6363,9853 6363,9853 6363,9853 6363,9853 Z M 6394,9850 C 6394,9867 6398,9880 6406,9890 6414,9898 6425,9903 6437,9903 6444,9903 6451,9901 6457,9899 6464,9896 6470,9892 6475,9886 6481,9881 6486,9875 6490,9868 6494,9861 6497,9853 6499,9845 6503,9833 6505,9822 6505,9812 6505,9795 6501,9783 6492,9773 6484,9764 6474,9760 6461,9760 6451,9760 6442,9762 6434,9767 6426,9772 6419,9778 6412,9787 6406,9796 6401,9807 6398,9818 6395,9830 6394,9841 6394,9850 L 6394,9850 6394,9850 6394,9850 6394,9850 Z M 6597,9706 L 6605,9670 6636,9670 6628,9706 6597,9706 6597,9706 6597,9706 6597,9706 6597,9706 Z M 6552,9923 L 6590,9740 6621,9740 6583,9923 6552,9923 6552,9923 6552,9923 6552,9923 6552,9923 Z M 6629,9923 L 6682,9670 6713,9670 6660,9923 6629,9923 6629,9923 6629,9923 6629,9923 6629,9923 Z M 6931,9896 C 6913,9917 6895,9927 6875,9927 6858,9927 6843,9920 6832,9908 6820,9895 6815,9876 6815,9852 6815,9830 6819,9809 6828,9791 6837,9772 6849,9759 6863,9749 6876,9740 6890,9736 6904,9736 6926,9736 6944,9747 6955,9768 L 6976,9670 7007,9670 6954,9923 6925,9923 6931,9896 6931,9896 6931,9896 6931,9896 6931,9896 Z M 6846,9846 C 6846,9859 6847,9869 6849,9876 6852,9884 6856,9890 6862,9895 6868,9899 6875,9902 6884,9902 6898,9902 6911,9895 6922,9880 6938,9860 6946,9836 6946,9807 6946,9793 6942,9782 6934,9774 6927,9766 6917,9761 6905,9761 6898,9761 6891,9763 6885,9766 6879,9770 6873,9775 6867,9783 6861,9791 6856,9802 6852,9814 6848,9826 6846,9837 6846,9846 L 6846,9846 6846,9846 6846,9846 6846,9846 Z M 7009,9853 C 7009,9818 7020,9788 7041,9765 7058,9745 7081,9736 7109,9736 7131,9736 7149,9743 7162,9756 7176,9770 7183,9789 7183,9812 7183,9833 7178,9853 7170,9871 7161,9889 7149,9903 7133,9912 7118,9922 7101,9927 7084,9927 7070,9927 7057,9924 7045,9918 7033,9912 7025,9903 7019,9892 7012,9881 7009,9868 7009,9853 L 7009,9853 7009,9853 7009,9853 7009,9853 Z M 7040,9850 C 7040,9867 7045,9880 7053,9890 7061,9898 7072,9903 7084,9903 7091,9903 7097,9901 7104,9899 7111,9896 7117,9892 7122,9886 7128,9881 7133,9875 7137,9868 7141,9861 7144,9853 7146,9845 7150,9833 7152,9822 7152,9812 7152,9795 7147,9783 7139,9773 7131,9764 7120,9760 7108,9760 7098,9760 7089,9762 7081,9767 7073,9772 7066,9778 7059,9787 7053,9796 7048,9807 7045,9818 7042,9830 7040,9841 7040,9850 L 7040,9850 7040,9850 7040,9850 7040,9850 Z M 7200,9923 L 7238,9740 7269,9740 7263,9770 C 7274,9757 7284,9748 7294,9743 7303,9738 7313,9736 7323,9736 7335,9736 7344,9739 7352,9745 7360,9751 7365,9759 7367,9770 7376,9759 7386,9750 7396,9745 7407,9739 7417,9736 7429,9736 7444,9736 7456,9739 7463,9747 7471,9754 7475,9764 7475,9777 7475,9783 7473,9792 7470,9805 L 7446,9923 7415,9923 7440,9802 C 7442,9792 7443,9785 7443,9780 7443,9775 7441,9770 7437,9767 7434,9763 7429,9761 7422,9761 7412,9761 7403,9764 7393,9770 7384,9776 7376,9783 7370,9792 7365,9801 7361,9815 7357,9834 L 7338,9923 7307,9923 7333,9799 C 7335,9791 7336,9785 7336,9781 7336,9775 7334,9770 7330,9767 7326,9763 7321,9761 7315,9761 7307,9761 7297,9764 7287,9770 7278,9776 7270,9783 7264,9793 7258,9803 7253,9818 7249,9836 L 7231,9923 7200,9923 7200,9923 7200,9923 7200,9923 7200,9923 Z M 7617,9900 C 7606,9909 7596,9916 7586,9921 7576,9925 7565,9927 7554,9927 7537,9927 7523,9922 7512,9912 7502,9902 7497,9889 7497,9874 7497,9864 7500,9855 7504,9847 7509,9839 7515,9833 7523,9828 7531,9823 7540,9820 7551,9818 7558,9816 7571,9815 7591,9814 7611,9814 7625,9811 7633,9808 7635,9800 7636,9792 7636,9787 7636,9779 7634,9774 7629,9770 7621,9764 7611,9761 7597,9761 7584,9761 7573,9764 7565,9770 7557,9775 7551,9784 7547,9795 L 7515,9792 C 7522,9774 7532,9760 7546,9750 7560,9741 7577,9736 7598,9736 7621,9736 7639,9741 7652,9752 7662,9760 7667,9770 7667,9783 7667,9793 7666,9804 7663,9817 L 7653,9863 C 7650,9877 7648,9889 7648,9898 7648,9904 7649,9912 7652,9923 L 7620,9923 C 7619,9917 7618,9909 7617,9900 L 7617,9900 7617,9900 7617,9900 7617,9900 Z M 7628,9830 C 7624,9832 7619,9833 7614,9834 7609,9835 7601,9836 7589,9837 7571,9838 7558,9840 7551,9843 7543,9845 7538,9849 7534,9855 7530,9860 7528,9866 7528,9873 7528,9881 7531,9889 7537,9895 7543,9900 7552,9903 7563,9903 7574,9903 7583,9900 7593,9895 7602,9889 7610,9881 7615,9872 7621,9862 7625,9848 7628,9830 L 7628,9830 7628,9830 7628,9830 7628,9830 Z M 7734,9706 L 7741,9670 7772,9670 7765,9706 7734,9706 7734,9706 7734,9706 7734,9706 7734,9706 Z M 7688,9923 L 7727,9740 7758,9740 7720,9923 7688,9923 7688,9923 7688,9923 7688,9923 7688,9923 Z M 7768,9923 L 7806,9740 7834,9740 7828,9772 C 7840,9759 7851,9750 7862,9745 7873,9739 7884,9736 7895,9736 7910,9736 7921,9740 7930,9748 7938,9756 7942,9767 7942,9780 7942,9787 7941,9797 7938,9812 L 7915,9923 7884,9923 7908,9807 C 7910,9796 7911,9787 7911,9782 7911,9776 7909,9771 7905,9767 7901,9763 7895,9761 7887,9761 7871,9761 7857,9767 7844,9779 7832,9790 7823,9810 7817,9837 L 7799,9923 7768,9923 7768,9923 7768,9923 7768,9923 7768,9923 Z"/>
         <path fill="none" stroke="rgb(89,89,89)" stroke-width="26" stroke-linejoin="round" d="M 7021,7202 L 8138,7202"/>
         <path fill="rgb(89,89,89)" stroke="none" d="M 8138,7246 L 8258,7202 8138,7158 8138,7246 8138,7246 8138,7246 8138,7246 Z"/>
         <path fill="none" stroke="rgb(89,89,89)" stroke-width="26" stroke-linejoin="miter" d="M 8138,7246 L 8258,7202 8138,7158 8138,7246 8138,7246 8138,7246 8138,7246 Z"/>
         <path fill="none" stroke="rgb(89,89,89)" stroke-width="26" stroke-linejoin="round" d="M 7880,7199 L 6908,7204"/>
         <path fill="rgb(89,89,89)" stroke="none" d="M 6907,7160 L 6788,7205 6908,7248 6907,7160 6907,7160 6907,7160 6907,7160 Z"/>
         <path fill="none" stroke="rgb(89,89,89)" stroke-width="26" stroke-linejoin="miter" d="M 6907,7160 L 6788,7205 6908,7248 6907,7160 6907,7160 6907,7160 6907,7160 Z"/>
         <path fill="rgb(89,89,89)" stroke="none" d="M 9408,6377 C 9406,6383 9403,6391 9398,6401 9394,6411 9388,6423 9379,6437 9371,6450 9361,6463 9351,6475 9340,6487 9328,6497 9313,6506 9298,6516 9283,6521 9267,6523 L 9235,6599 9202,6599 9240,6523 C 9223,6523 9209,6518 9200,6510 9190,6502 9187,6489 9191,6473 9193,6462 9200,6447 9211,6425 9223,6404 9229,6389 9231,6381 9232,6375 9230,6372 9224,6372 9220,6372 9215,6373 9211,6376 9207,6379 9204,6383 9201,6387 9198,6392 9196,6397 9193,6402 9191,6406 9188,6411 9187,6415 L 9177,6415 C 9180,6408 9183,6402 9185,6398 9187,6394 9190,6389 9194,6383 9198,6377 9202,6373 9206,6370 9210,6366 9214,6363 9220,6361 9226,6359 9232,6357 9239,6357 9247,6357 9253,6360 9256,6366 9259,6371 9259,6378 9257,6387 9255,6398 9248,6414 9236,6435 9225,6456 9218,6471 9215,6483 9211,6503 9221,6514 9245,6515 L 9341,6323 9350,6323 9270,6515 C 9291,6512 9311,6502 9329,6483 9348,6465 9359,6445 9364,6423 9365,6419 9366,6412 9366,6404 9367,6395 9368,6388 9369,6384 9370,6377 9373,6371 9378,6366 9382,6360 9388,6357 9394,6357 9406,6357 9410,6364 9408,6377 L 9408,6377 9408,6377 9408,6377 9408,6377 Z"/>
         <path fill="rgb(89,89,89)" stroke="none" d="M 9401,6610 L 9421,6609 C 9421,6615 9422,6620 9424,6624 9426,6628 9429,6632 9434,6635 9439,6637 9445,6639 9451,6639 9461,6639 9467,6637 9472,6633 9476,6630 9479,6625 9479,6620 9479,6617 9477,6613 9475,6610 9472,6607 9465,6603 9454,6598 9443,6594 9436,6590 9433,6588 9428,6585 9424,6581 9421,6577 9419,6573 9418,6568 9418,6563 9418,6553 9421,6545 9429,6538 9436,6531 9447,6528 9461,6528 9476,6528 9488,6531 9496,6538 9504,6545 9508,6554 9508,6566 L 9488,6567 C 9488,6560 9485,6554 9480,6550 9475,6546 9468,6544 9460,6544 9453,6544 9447,6545 9443,6549 9439,6552 9437,6555 9437,6559 9437,6563 9439,6566 9442,6569 9444,6571 9450,6574 9460,6578 9476,6585 9486,6591 9490,6595 9496,6601 9500,6609 9500,6618 9500,6624 9498,6630 9494,6635 9490,6641 9485,6646 9477,6650 9470,6653 9461,6655 9450,6655 9436,6655 9424,6651 9414,6644 9405,6637 9400,6626 9401,6610 L 9401,6610 9401,6610 9401,6610 9401,6610 Z M 9521,6652 L 9526,6628 9549,6628 9545,6649 C 9542,6661 9538,6670 9533,6676 9527,6682 9521,6685 9514,6686 L 9515,6677 C 9525,6674 9531,6666 9534,6652 L 9521,6652 9521,6652 9521,6652 9521,6652 9521,6652 Z M 9581,6652 L 9606,6530 9625,6530 9620,6555 C 9626,6546 9632,6539 9638,6535 9644,6530 9650,6528 9656,6528 9660,6528 9666,6529 9672,6532 L 9663,6551 C 9660,6549 9656,6547 9651,6547 9644,6547 9637,6552 9629,6560 9621,6568 9615,6582 9611,6603 L 9601,6652 9581,6652 9581,6652 9581,6652 9581,6652 9581,6652 Z"/>
         <path fill="rgb(89,89,89)" stroke="none" d="M 6055,6076 L 6055,6076 C 6055,6010 6105,5956 6166,5956 L 6166,5956 C 6196,5956 6224,5969 6245,5991 6266,6014 6278,6044 6278,6076 L 6278,6076 C 6278,6142 6228,6195 6166,6195 L 6166,6195 C 6105,6195 6055,6142 6055,6076 L 6055,6076 6055,6076 6055,6076 6055,6076 Z"/>
         <path fill="none" stroke="rgb(89,89,89)" stroke-width="26" stroke-linejoin="round" d="M 6055,6076 L 6055,6076 C 6055,6010 6105,5956 6166,5956 L 6166,5956 C 6196,5956 6224,5969 6245,5991 6266,6014 6278,6044 6278,6076 L 6278,6076 C 6278,6142 6228,6195 6166,6195 L 6166,6195 C 6105,6195 6055,6142 6055,6076 Z"/>
         <path fill="rgb(204,0,0)" stroke="none" d="M 8761,6076 L 8761,6076 C 8761,6010 8811,5956 8873,5956 L 8873,5956 C 8902,5956 8931,5969 8952,5991 8973,6014 8984,6044 8984,6076 L 8984,6076 C 8984,6142 8934,6195 8873,6195 L 8873,6195 C 8811,6195 8761,6142 8761,6076 L 8761,6076 8761,6076 8761,6076 8761,6076 Z"/>
         <path fill="none" stroke="rgb(89,89,89)" stroke-width="26" stroke-linejoin="round" d="M 8761,6076 L 8761,6076 C 8761,6010 8811,5956 8873,5956 L 8873,5956 C 8902,5956 8931,5969 8952,5991 8973,6014 8984,6044 8984,6076 L 8984,6076 C 8984,6142 8934,6195 8873,6195 L 8873,6195 C 8811,6195 8761,6142 8761,6076 Z"/>
         <path fill="rgb(89,89,89)" stroke="none" d="M 20676,6076 L 20676,6076 C 20676,6010 20726,5956 20788,5956 L 20788,5956 C 20817,5956 20846,5969 20867,5991 20888,6014 20899,6044 20899,6076 L 20899,6076 C 20899,6142 20850,6195 20788,6195 L 20788,6195 C 20726,6195 20676,6142 20676,6076 L 20676,6076 20676,6076 20676,6076 20676,6076 Z"/>
         <path fill="none" stroke="rgb(89,89,89)" stroke-width="26" stroke-linejoin="round" d="M 20676,6076 L 20676,6076 C 20676,6010 20726,5956 20788,5956 L 20788,5956 C 20817,5956 20846,5969 20867,5991 20888,6014 20899,6044 20899,6076 L 20899,6076 C 20899,6142 20850,6195 20788,6195 L 20788,6195 C 20726,6195 20676,6142 20676,6076 Z"/>
         <path fill="rgb(89,89,89)" stroke="none" d="M 6626,6377 C 6624,6383 6621,6391 6617,6401 6612,6411 6606,6423 6597,6437 6589,6450 6580,6463 6569,6475 6559,6487 6546,6497 6531,6506 6516,6516 6501,6521 6485,6523 L 6453,6599 6420,6599 6458,6523 C 6441,6523 6427,6518 6418,6510 6408,6502 6405,6489 6409,6473 6411,6462 6418,6447 6429,6425 6441,6404 6448,6389 6449,6381 6451,6375 6448,6372 6443,6372 6438,6372 6433,6373 6429,6376 6425,6379 6422,6383 6419,6387 6417,6392 6414,6397 6411,6402 6409,6406 6407,6411 6405,6415 L 6395,6415 C 6398,6408 6401,6402 6403,6398 6405,6394 6409,6389 6412,6383 6416,6377 6420,6373 6424,6370 6428,6366 6433,6363 6438,6361 6444,6359 6450,6357 6457,6357 6466,6357 6471,6360 6474,6366 6477,6371 6477,6378 6475,6387 6473,6398 6466,6414 6455,6435 6443,6456 6436,6471 6433,6483 6429,6503 6439,6514 6463,6515 L 6560,6323 6568,6323 6488,6515 C 6510,6512 6529,6502 6548,6483 6566,6465 6578,6445 6582,6423 6583,6419 6584,6412 6584,6404 6585,6395 6586,6388 6587,6384 6588,6377 6591,6371 6596,6366 6601,6360 6606,6357 6612,6357 6624,6357 6628,6364 6626,6377 L 6626,6377 6626,6377 6626,6377 6626,6377 Z"/>
         <path fill="rgb(89,89,89)" stroke="none" d="M 6608,6652 L 6661,6590 6631,6530 6654,6530 6664,6552 C 6668,6560 6671,6568 6675,6575 L 6710,6530 6735,6530 6684,6592 6715,6652 6692,6652 6679,6627 C 6677,6622 6674,6615 6671,6608 L 6634,6652 6608,6652 6608,6652 6608,6652 6608,6652 6608,6652 Z"/>
         <path fill="rgb(89,89,89)" stroke="none" d="M 20244,6377 C 20243,6383 20240,6391 20235,6401 20231,6411 20224,6423 20216,6437 20207,6450 20198,6463 20187,6475 20177,6487 20164,6497 20149,6506 20135,6516 20119,6521 20103,6523 L 20072,6599 20039,6599 20077,6523 C 20059,6523 20046,6518 20036,6510 20027,6502 20024,6489 20027,6473 20029,6462 20036,6447 20048,6425 20059,6404 20066,6389 20068,6381 20069,6375 20067,6372 20061,6372 20056,6372 20052,6373 20048,6376 20044,6379 20040,6383 20037,6387 20035,6392 20032,6397 20030,6402 20027,6406 20025,6411 20023,6415 L 20013,6415 C 20017,6408 20020,6402 20022,6398 20024,6394 20027,6389 20031,6383 20035,6377 20039,6373 20042,6370 20046,6366 20051,6363 20057,6361 20063,6359 20069,6357 20075,6357 20084,6357 20090,6360 20092,6366 20095,6371 20096,6378 20094,6387 20091,6398 20085,6414 20073,6435 20061,6456 20054,6471 20052,6483 20048,6503 20057,6514 20081,6515 L 20178,6323 20187,6323 20106,6515 C 20128,6512 20148,6502 20166,6483 20184,6465 20196,6445 20201,6423 20202,6419 20202,6412 20203,6404 20204,6395 20204,6388 20205,6384 20207,6377 20210,6371 20214,6366 20219,6360 20225,6357 20231,6357 20242,6357 20247,6364 20244,6377 L 20244,6377 20244,6377 20244,6377 20244,6377 Z"/>
         <path fill="rgb(89,89,89)" stroke="none" d="M 20235,6652 L 20270,6484 20291,6484 20278,6544 C 20285,6538 20291,6534 20296,6531 20301,6529 20307,6528 20313,6528 20324,6528 20334,6532 20341,6540 20349,6549 20353,6561 20353,6577 20353,6588 20351,6598 20348,6607 20345,6616 20341,6623 20337,6629 20332,6635 20328,6640 20323,6644 20318,6648 20313,6650 20308,6652 20303,6654 20298,6655 20294,6655 20286,6655 20278,6653 20272,6649 20266,6644 20262,6638 20258,6629 L 20253,6652 20235,6652 20235,6652 20235,6652 20235,6652 20235,6652 Z M 20266,6602 L 20266,6606 C 20266,6616 20268,6624 20273,6630 20278,6635 20284,6638 20292,6638 20299,6638 20305,6635 20312,6630 20318,6625 20323,6617 20326,6607 20331,6596 20333,6586 20333,6577 20333,6566 20330,6558 20325,6553 20320,6547 20314,6544 20307,6544 20299,6544 20292,6547 20286,6553 20280,6559 20275,6568 20271,6580 20267,6588 20266,6596 20266,6602 L 20266,6602 20266,6602 20266,6602 20266,6602 Z M 20371,6652 L 20376,6628 20399,6628 20395,6649 C 20392,6661 20388,6670 20383,6676 20377,6682 20371,6685 20364,6686 L 20365,6677 C 20374,6674 20380,6666 20383,6652 L 20371,6652 20371,6652 20371,6652 20371,6652 20371,6652 Z M 20433,6610 L 20454,6609 C 20454,6615 20454,6620 20456,6624 20458,6628 20461,6632 20466,6635 20471,6637 20477,6639 20484,6639 20493,6639 20500,6637 20504,6633 20509,6630 20511,6625 20511,6620 20511,6617 20510,6613 20507,6610 20504,6607 20497,6603 20486,6598 20475,6594 20468,6590 20465,6588 20460,6585 20456,6581 20454,6577 20451,6573 20450,6568 20450,6563 20450,6553 20454,6545 20461,6538 20469,6531 20480,6528 20493,6528 20509,6528 20520,6531 20528,6538 20536,6545 20541,6554 20541,6566 L 20521,6567 C 20520,6560 20518,6554 20513,6550 20508,6546 20501,6544 20492,6544 20485,6544 20479,6545 20475,6549 20471,6552 20469,6555 20469,6559 20469,6563 20471,6566 20474,6569 20477,6571 20483,6574 20492,6578 20508,6585 20518,6591 20522,6595 20529,6601 20532,6609 20532,6618 20532,6624 20530,6630 20526,6635 20523,6641 20517,6646 20509,6650 20502,6653 20493,6655 20483,6655 20469,6655 20457,6651 20447,6644 20437,6637 20432,6626 20433,6610 L 20433,6610 20433,6610 20433,6610 20433,6610 Z"/>
         <path fill="rgb(56,118,29)" stroke="none" d="M 7489,4392 C 7471,4408 7454,4416 7437,4416 7421,4416 7406,4410 7394,4397 7383,4384 7377,4366 7377,4342 7377,4319 7381,4299 7390,4280 7399,4262 7410,4248 7424,4239 7438,4230 7453,4225 7467,4225 7478,4225 7488,4229 7497,4235 7507,4241 7514,4250 7520,4263 L 7527,4230 7554,4230 7501,4482 7470,4482 7489,4392 7489,4392 7489,4392 7489,4392 7489,4392 Z M 7408,4338 C 7408,4356 7411,4369 7419,4378 7426,4386 7436,4391 7447,4391 7456,4391 7466,4387 7475,4379 7485,4371 7493,4360 7499,4344 7505,4328 7508,4313 7508,4299 7508,4284 7504,4272 7497,4264 7489,4255 7479,4251 7468,4251 7457,4251 7448,4255 7440,4262 7429,4271 7421,4284 7415,4301 7410,4315 7408,4327 7408,4338 L 7408,4338 7408,4338 7408,4338 7408,4338 Z"/>
         <path fill="rgb(56,118,29)" stroke="none" d="M 7563,4544 L 7588,4423 7607,4423 7601,4448 C 7608,4438 7614,4432 7620,4427 7626,4422 7632,4420 7638,4420 7642,4420 7647,4422 7653,4425 L 7645,4444 C 7642,4441 7638,4440 7633,4440 7626,4440 7618,4444 7611,4452 7603,4460 7597,4475 7593,4496 L 7583,4544 7563,4544 7563,4544 7563,4544 7563,4544 7563,4544 Z M 7645,4498 C 7645,4474 7652,4455 7665,4439 7677,4426 7692,4420 7711,4420 7726,4420 7738,4425 7746,4434 7756,4443 7760,4455 7760,4471 7760,4485 7757,4498 7751,4510 7746,4522 7738,4531 7727,4538 7717,4544 7706,4547 7694,4547 7685,4547 7676,4545 7668,4541 7661,4537 7655,4531 7651,4524 7647,4516 7645,4508 7645,4498 L 7645,4498 7645,4498 7645,4498 7645,4498 Z M 7665,4496 C 7665,4508 7668,4517 7674,4523 7679,4528 7686,4531 7695,4531 7699,4531 7703,4530 7708,4529 7712,4527 7716,4524 7720,4521 7724,4517 7727,4512 7729,4508 7732,4503 7734,4498 7736,4492 7738,4485 7739,4478 7739,4471 7739,4460 7737,4451 7731,4445 7726,4439 7719,4436 7710,4436 7704,4436 7698,4438 7692,4441 7687,4444 7682,4448 7678,4454 7674,4460 7670,4467 7668,4475 7666,4483 7665,4490 7665,4496 L 7665,4496 7665,4496 7665,4496 7665,4496 Z M 7775,4498 C 7775,4474 7782,4455 7796,4439 7808,4426 7823,4420 7841,4420 7856,4420 7868,4425 7877,4434 7886,4443 7891,4455 7891,4471 7891,4485 7888,4498 7882,4510 7876,4522 7868,4531 7858,4538 7848,4544 7836,4547 7825,4547 7816,4547 7807,4545 7799,4541 7791,4537 7785,4531 7781,4524 7777,4516 7775,4508 7775,4498 L 7775,4498 7775,4498 7775,4498 7775,4498 Z M 7796,4496 C 7796,4508 7799,4517 7804,4523 7810,4528 7817,4531 7825,4531 7830,4531 7834,4530 7838,4529 7843,4527 7847,4524 7851,4521 7854,4517 7858,4512 7860,4508 7863,4503 7865,4498 7867,4492 7869,4485 7870,4478 7870,4471 7870,4460 7867,4451 7862,4445 7856,4439 7849,4436 7841,4436 7834,4436 7828,4438 7823,4441 7818,4444 7813,4448 7808,4454 7804,4460 7801,4467 7799,4475 7797,4483 7796,4490 7796,4496 L 7796,4496 7796,4496 7796,4496 7796,4496 Z M 7951,4528 L 7947,4544 C 7942,4546 7937,4547 7933,4547 7924,4547 7918,4544 7913,4540 7909,4537 7908,4533 7908,4528 7908,4525 7909,4519 7910,4509 L 7925,4439 7909,4439 7912,4423 7929,4423 7935,4393 7959,4378 7949,4423 7970,4423 7966,4439 7946,4439 7932,4506 C 7930,4515 7929,4520 7929,4521 7929,4524 7930,4526 7932,4527 7933,4528 7935,4529 7939,4529 7943,4529 7947,4529 7951,4528 L 7951,4528 7951,4528 7951,4528 7951,4528 Z"/>
         <path fill="rgb(255,153,0)" stroke="none" d="M 14777,4392 C 14759,4408 14742,4416 14726,4416 14709,4416 14694,4410 14683,4397 14671,4384 14665,4366 14665,4342 14665,4319 14670,4299 14678,4280 14687,4262 14699,4248 14712,4239 14726,4230 14741,4225 14755,4225 14766,4225 14776,4229 14785,4235 14795,4241 14802,4250 14808,4263 L 14815,4230 14842,4230 14789,4482 14758,4482 14777,4392 14777,4392 14777,4392 14777,4392 14777,4392 Z M 14696,4338 C 14696,4356 14700,4369 14707,4378 14714,4386 14724,4391 14735,4391 14744,4391 14754,4387 14764,4379 14773,4371 14781,4360 14787,4344 14793,4328 14796,4313 14796,4299 14796,4284 14792,4272 14785,4264 14777,4255 14768,4251 14757,4251 14746,4251 14736,4255 14728,4262 14717,4271 14709,4284 14703,4301 14698,4315 14696,4327 14696,4338 L 14696,4338 14696,4338 14696,4338 14696,4338 Z"/>
         <path fill="rgb(255,153,0)" stroke="none" d="M 14853,4503 L 14874,4501 C 14874,4508 14875,4513 14876,4517 14878,4521 14882,4524 14887,4527 14891,4530 14897,4531 14904,4531 14913,4531 14920,4529 14924,4526 14929,4522 14931,4518 14931,4513 14931,4509 14930,4506 14927,4502 14924,4499 14917,4495 14906,4491 14895,4486 14888,4483 14885,4481 14880,4478 14876,4474 14874,4470 14871,4466 14870,4461 14870,4455 14870,4446 14874,4437 14881,4430 14889,4424 14900,4420 14913,4420 14929,4420 14941,4424 14949,4431 14957,4438 14961,4447 14961,4459 L 14941,4460 C 14940,4453 14938,4447 14933,4443 14928,4438 14921,4436 14912,4436 14905,4436 14899,4438 14895,4441 14891,4444 14889,4448 14889,4451 14889,4455 14891,4459 14894,4462 14897,4464 14903,4467 14912,4471 14928,4478 14938,4483 14942,4487 14949,4493 14952,4501 14952,4510 14952,4516 14950,4522 14946,4528 14943,4534 14937,4538 14930,4542 14922,4546 14913,4547 14903,4547 14889,4547 14877,4544 14867,4537 14857,4530 14852,4518 14853,4503 L 14853,4503 14853,4503 14853,4503 14853,4503 Z M 14972,4498 C 14972,4474 14979,4455 14993,4439 15004,4426 15019,4420 15038,4420 15053,4420 15065,4425 15074,4434 15083,4443 15087,4455 15087,4471 15087,4485 15085,4498 15079,4510 15073,4522 15065,4531 15055,4538 15044,4544 15033,4547 15022,4547 15012,4547 15004,4545 14996,4541 14988,4537 14982,4531 14978,4524 14974,4516 14972,4508 14972,4498 L 14972,4498 14972,4498 14972,4498 14972,4498 Z M 14993,4496 C 14993,4508 14996,4517 15001,4523 15007,4528 15014,4531 15022,4531 15027,4531 15031,4530 15035,4529 15039,4527 15043,4524 15047,4521 15051,4517 15054,4512 15057,4508 15060,4503 15062,4498 15063,4492 15066,4485 15067,4478 15067,4471 15067,4460 15064,4451 15058,4445 15053,4439 15046,4436 15037,4436 15031,4436 15025,4438 15020,4441 15014,4444 15010,4448 15005,4454 15001,4460 14998,4467 14996,4475 14994,4483 14993,4490 14993,4496 L 14993,4496 14993,4496 14993,4496 14993,4496 Z M 15128,4400 L 15133,4376 15154,4376 15149,4400 15128,4400 15128,4400 15128,4400 15128,4400 15128,4400 Z M 15098,4544 L 15123,4423 15144,4423 15119,4544 15098,4544 15098,4544 15098,4544 15098,4544 15098,4544 Z M 15149,4544 L 15185,4376 15205,4376 15170,4544 15149,4544 15149,4544 15149,4544 15149,4544 15149,4544 Z"/>
        </g>
        <g clip-path="url(#clip_path_1)"/>
       </g>
      </g>
     </g>
    </g>
   </g>
  </g>
 </g>
</svg>